<svg width="32" height="32" xmlns="http://www.w3.org/2000/svg">
  <!-- Dollar bill background -->
  <rect width="32" height="32" fill="#85BB65"/>
  
  <!-- Border decoration -->
  <rect x="1" y="1" width="30" height="30" fill="none" stroke="#2D5016" stroke-width="1"/>
  <rect x="2" y="2" width="28" height="28" fill="none" stroke="#4A7C2F" stroke-width="0.5"/>
  
  <!-- Dollar sign -->
  <path d="M 16 8 L 16 24" stroke="#2D5016" stroke-width="2" stroke-linecap="round"/>
  <path d="M 12 11 Q 12 9 14 9 L 18 9 Q 20 9 20 11 Q 20 13 18 13 L 14 13" 
        fill="none" stroke="#2D5016" stroke-width="2" stroke-linecap="round"/>
  <path d="M 20 21 Q 20 23 18 23 L 14 23 Q 12 23 12 21 Q 12 19 14 19 L 18 19" 
        fill="none" stroke="#2D5016" stroke-width="2" stroke-linecap="round"/>
  
  <!-- Corner ornaments -->
  <circle cx="6" cy="6" r="1.5" fill="#2D5016" opacity="0.3"/>
  <circle cx="26" cy="6" r="1.5" fill="#2D5016" opacity="0.3"/>
  <circle cx="6" cy="26" r="1.5" fill="#2D5016" opacity="0.3"/>
  <circle cx="26" cy="26" r="1.5" fill="#2D5016" opacity="0.3"/>
</svg>
